<mxfile host="app.diagrams.net" modified="2021-06-07T14:23:07.958Z" agent="5.0 (X11)" etag="6lAafbBrxbCeHXZJExcC" version="14.7.6" type="github">
  <diagram id="yYSWFKsf4J-W59a8yVvI" name="Page-1">
    <mxGraphModel dx="1421" dy="704" grid="1" gridSize="10" guides="1" tooltips="1" connect="1" arrows="1" fold="1" page="1" pageScale="1" pageWidth="827" pageHeight="1169" math="0" shadow="0">
      <root>
        <mxCell id="0" />
        <mxCell id="1" parent="0" />
        <mxCell id="Z5-3QnoSSxAkNdHi2Z3w-9" style="edgeStyle=orthogonalEdgeStyle;rounded=0;orthogonalLoop=1;jettySize=auto;html=1;exitX=0.5;exitY=1;exitDx=0;exitDy=0;" edge="1" parent="1" source="Z5-3QnoSSxAkNdHi2Z3w-1" target="Z5-3QnoSSxAkNdHi2Z3w-2">
          <mxGeometry relative="1" as="geometry" />
        </mxCell>
        <mxCell id="Z5-3QnoSSxAkNdHi2Z3w-1" value="Sequential" style="rounded=0;whiteSpace=wrap;html=1;" vertex="1" parent="1">
          <mxGeometry x="360" y="120" width="80" height="40" as="geometry" />
        </mxCell>
        <mxCell id="Z5-3QnoSSxAkNdHi2Z3w-10" style="edgeStyle=orthogonalEdgeStyle;rounded=0;orthogonalLoop=1;jettySize=auto;html=1;" edge="1" parent="1" source="Z5-3QnoSSxAkNdHi2Z3w-2" target="Z5-3QnoSSxAkNdHi2Z3w-4">
          <mxGeometry relative="1" as="geometry" />
        </mxCell>
        <mxCell id="Z5-3QnoSSxAkNdHi2Z3w-2" value="InvertedResidual" style="rounded=0;whiteSpace=wrap;html=1;fillColor=#cdeb8b;strokeColor=#36393d;" vertex="1" parent="1">
          <mxGeometry x="345" y="180" width="110" height="40" as="geometry" />
        </mxCell>
        <mxCell id="Z5-3QnoSSxAkNdHi2Z3w-11" style="edgeStyle=orthogonalEdgeStyle;rounded=0;orthogonalLoop=1;jettySize=auto;html=1;exitX=0.5;exitY=1;exitDx=0;exitDy=0;" edge="1" parent="1" source="Z5-3QnoSSxAkNdHi2Z3w-4" target="Z5-3QnoSSxAkNdHi2Z3w-5">
          <mxGeometry relative="1" as="geometry">
            <Array as="points">
              <mxPoint x="544" y="200" />
            </Array>
          </mxGeometry>
        </mxCell>
        <mxCell id="Z5-3QnoSSxAkNdHi2Z3w-4" value="InvertedResidual" style="rounded=0;whiteSpace=wrap;html=1;fillColor=#cdeb8b;strokeColor=#36393d;" vertex="1" parent="1">
          <mxGeometry x="489" y="180" width="110" height="40" as="geometry" />
        </mxCell>
        <mxCell id="Z5-3QnoSSxAkNdHi2Z3w-12" style="edgeStyle=orthogonalEdgeStyle;rounded=0;orthogonalLoop=1;jettySize=auto;html=1;exitX=0.5;exitY=1;exitDx=0;exitDy=0;" edge="1" parent="1" source="Z5-3QnoSSxAkNdHi2Z3w-5" target="Z5-3QnoSSxAkNdHi2Z3w-6">
          <mxGeometry relative="1" as="geometry" />
        </mxCell>
        <mxCell id="Z5-3QnoSSxAkNdHi2Z3w-5" value="InvertedResidual" style="rounded=0;whiteSpace=wrap;html=1;fillColor=#d5e8d4;strokeColor=#82b366;" vertex="1" parent="1">
          <mxGeometry x="639" y="180" width="110" height="40" as="geometry" />
        </mxCell>
        <mxCell id="Z5-3QnoSSxAkNdHi2Z3w-13" style="edgeStyle=orthogonalEdgeStyle;rounded=0;orthogonalLoop=1;jettySize=auto;html=1;exitX=0.5;exitY=1;exitDx=0;exitDy=0;entryX=0;entryY=0.5;entryDx=0;entryDy=0;" edge="1" parent="1" source="Z5-3QnoSSxAkNdHi2Z3w-6" target="Z5-3QnoSSxAkNdHi2Z3w-44">
          <mxGeometry relative="1" as="geometry">
            <mxPoint x="694" y="330" as="targetPoint" />
            <Array as="points">
              <mxPoint x="694" y="270" />
            </Array>
          </mxGeometry>
        </mxCell>
        <mxCell id="Z5-3QnoSSxAkNdHi2Z3w-6" value="InvertedResidual" style="rounded=0;whiteSpace=wrap;html=1;fillColor=#cdeb8b;strokeColor=#36393d;" vertex="1" parent="1">
          <mxGeometry x="639" y="250" width="110" height="40" as="geometry" />
        </mxCell>
        <mxCell id="Z5-3QnoSSxAkNdHi2Z3w-39" value="&lt;div&gt;None&lt;br&gt;&lt;/div&gt;" style="text;html=1;strokeColor=none;fillColor=none;align=center;verticalAlign=middle;whiteSpace=wrap;rounded=0;" vertex="1" parent="1">
          <mxGeometry x="400" y="160" width="40" height="20" as="geometry" />
        </mxCell>
        <mxCell id="Z5-3QnoSSxAkNdHi2Z3w-41" value="&lt;div&gt;None&lt;br&gt;&lt;/div&gt;" style="text;html=1;strokeColor=none;fillColor=none;align=center;verticalAlign=middle;whiteSpace=wrap;rounded=0;" vertex="1" parent="1">
          <mxGeometry x="452" y="180" width="40" height="20" as="geometry" />
        </mxCell>
        <mxCell id="Z5-3QnoSSxAkNdHi2Z3w-42" value="1" style="text;html=1;strokeColor=none;fillColor=none;align=center;verticalAlign=middle;whiteSpace=wrap;rounded=0;" vertex="1" parent="1">
          <mxGeometry x="599" y="180" width="40" height="20" as="geometry" />
        </mxCell>
        <mxCell id="Z5-3QnoSSxAkNdHi2Z3w-43" value="2" style="text;html=1;strokeColor=none;fillColor=none;align=center;verticalAlign=middle;whiteSpace=wrap;rounded=0;" vertex="1" parent="1">
          <mxGeometry x="749" y="250" width="40" height="20" as="geometry" />
        </mxCell>
        <mxCell id="Z5-3QnoSSxAkNdHi2Z3w-47" style="edgeStyle=orthogonalEdgeStyle;rounded=0;orthogonalLoop=1;jettySize=auto;html=1;exitX=0.5;exitY=1;exitDx=0;exitDy=0;" edge="1" parent="1" source="Z5-3QnoSSxAkNdHi2Z3w-44" target="Z5-3QnoSSxAkNdHi2Z3w-46">
          <mxGeometry relative="1" as="geometry" />
        </mxCell>
        <mxCell id="Z5-3QnoSSxAkNdHi2Z3w-44" value="InvertedResidual" style="rounded=0;whiteSpace=wrap;html=1;fillColor=#d5e8d4;strokeColor=#82b366;" vertex="1" parent="1">
          <mxGeometry x="790" y="250" width="110" height="40" as="geometry" />
        </mxCell>
        <mxCell id="Z5-3QnoSSxAkNdHi2Z3w-45" value="1" style="text;html=1;strokeColor=none;fillColor=none;align=center;verticalAlign=middle;whiteSpace=wrap;rounded=0;" vertex="1" parent="1">
          <mxGeometry x="688" y="223" width="40" height="20" as="geometry" />
        </mxCell>
        <mxCell id="Z5-3QnoSSxAkNdHi2Z3w-51" style="edgeStyle=orthogonalEdgeStyle;rounded=0;orthogonalLoop=1;jettySize=auto;html=1;exitX=0.5;exitY=1;exitDx=0;exitDy=0;" edge="1" parent="1" source="Z5-3QnoSSxAkNdHi2Z3w-46" target="Z5-3QnoSSxAkNdHi2Z3w-50">
          <mxGeometry relative="1" as="geometry" />
        </mxCell>
        <mxCell id="Z5-3QnoSSxAkNdHi2Z3w-46" value="InvertedResidual" style="rounded=0;whiteSpace=wrap;html=1;fillColor=#d5e8d4;strokeColor=#82b366;" vertex="1" parent="1">
          <mxGeometry x="790" y="320" width="110" height="40" as="geometry" />
        </mxCell>
        <mxCell id="Z5-3QnoSSxAkNdHi2Z3w-48" value="2" style="text;html=1;strokeColor=none;fillColor=none;align=center;verticalAlign=middle;whiteSpace=wrap;rounded=0;" vertex="1" parent="1">
          <mxGeometry x="840" y="290" width="40" height="20" as="geometry" />
        </mxCell>
        <mxCell id="Z5-3QnoSSxAkNdHi2Z3w-54" style="edgeStyle=orthogonalEdgeStyle;rounded=0;orthogonalLoop=1;jettySize=auto;html=1;exitX=1;exitY=0.5;exitDx=0;exitDy=0;" edge="1" parent="1" source="Z5-3QnoSSxAkNdHi2Z3w-50" target="Z5-3QnoSSxAkNdHi2Z3w-53">
          <mxGeometry relative="1" as="geometry" />
        </mxCell>
        <mxCell id="Z5-3QnoSSxAkNdHi2Z3w-50" value="InvertedResidual" style="rounded=0;whiteSpace=wrap;html=1;fillColor=#cdeb8b;strokeColor=#36393d;" vertex="1" parent="1">
          <mxGeometry x="790" y="390" width="110" height="40" as="geometry" />
        </mxCell>
        <mxCell id="Z5-3QnoSSxAkNdHi2Z3w-52" value="2" style="text;html=1;strokeColor=none;fillColor=none;align=center;verticalAlign=middle;whiteSpace=wrap;rounded=0;" vertex="1" parent="1">
          <mxGeometry x="840" y="360" width="40" height="20" as="geometry" />
        </mxCell>
        <mxCell id="Z5-3QnoSSxAkNdHi2Z3w-53" value="InvertedResidual" style="rounded=0;whiteSpace=wrap;html=1;fillColor=#d5e8d4;strokeColor=#82b366;" vertex="1" parent="1">
          <mxGeometry x="940" y="390" width="110" height="40" as="geometry" />
        </mxCell>
        <mxCell id="Z5-3QnoSSxAkNdHi2Z3w-55" value="3" style="text;html=1;strokeColor=none;fillColor=none;align=center;verticalAlign=middle;whiteSpace=wrap;rounded=0;" vertex="1" parent="1">
          <mxGeometry x="900" y="390" width="40" height="20" as="geometry" />
        </mxCell>
        <mxCell id="Z5-3QnoSSxAkNdHi2Z3w-64" style="edgeStyle=orthogonalEdgeStyle;rounded=0;orthogonalLoop=1;jettySize=auto;html=1;exitX=0.5;exitY=1;exitDx=0;exitDy=0;" edge="1" parent="1" source="Z5-3QnoSSxAkNdHi2Z3w-57" target="Z5-3QnoSSxAkNdHi2Z3w-58">
          <mxGeometry relative="1" as="geometry" />
        </mxCell>
        <mxCell id="Z5-3QnoSSxAkNdHi2Z3w-57" value="Block 1" style="rounded=0;whiteSpace=wrap;html=1;" vertex="1" parent="1">
          <mxGeometry x="1800" y="80" width="80" height="40" as="geometry" />
        </mxCell>
        <mxCell id="Z5-3QnoSSxAkNdHi2Z3w-65" style="edgeStyle=orthogonalEdgeStyle;rounded=0;orthogonalLoop=1;jettySize=auto;html=1;exitX=0.5;exitY=1;exitDx=0;exitDy=0;" edge="1" parent="1" source="Z5-3QnoSSxAkNdHi2Z3w-58" target="Z5-3QnoSSxAkNdHi2Z3w-59">
          <mxGeometry relative="1" as="geometry" />
        </mxCell>
        <mxCell id="Z5-3QnoSSxAkNdHi2Z3w-58" value="Block 2" style="rounded=0;whiteSpace=wrap;html=1;" vertex="1" parent="1">
          <mxGeometry x="1800" y="150" width="80" height="40" as="geometry" />
        </mxCell>
        <mxCell id="Z5-3QnoSSxAkNdHi2Z3w-66" style="edgeStyle=orthogonalEdgeStyle;rounded=0;orthogonalLoop=1;jettySize=auto;html=1;exitX=0.5;exitY=1;exitDx=0;exitDy=0;entryX=0.5;entryY=0;entryDx=0;entryDy=0;" edge="1" parent="1" source="Z5-3QnoSSxAkNdHi2Z3w-59" target="Z5-3QnoSSxAkNdHi2Z3w-60">
          <mxGeometry relative="1" as="geometry" />
        </mxCell>
        <mxCell id="Z5-3QnoSSxAkNdHi2Z3w-67" style="edgeStyle=orthogonalEdgeStyle;rounded=0;orthogonalLoop=1;jettySize=auto;html=1;exitX=0.5;exitY=1;exitDx=0;exitDy=0;" edge="1" parent="1" source="Z5-3QnoSSxAkNdHi2Z3w-59" target="Z5-3QnoSSxAkNdHi2Z3w-61">
          <mxGeometry relative="1" as="geometry" />
        </mxCell>
        <mxCell id="Z5-3QnoSSxAkNdHi2Z3w-68" style="edgeStyle=orthogonalEdgeStyle;rounded=0;orthogonalLoop=1;jettySize=auto;html=1;exitX=0.5;exitY=1;exitDx=0;exitDy=0;" edge="1" parent="1" source="Z5-3QnoSSxAkNdHi2Z3w-59" target="Z5-3QnoSSxAkNdHi2Z3w-62">
          <mxGeometry relative="1" as="geometry" />
        </mxCell>
        <mxCell id="Z5-3QnoSSxAkNdHi2Z3w-59" value="Block 3" style="rounded=0;whiteSpace=wrap;html=1;" vertex="1" parent="1">
          <mxGeometry x="1800" y="220" width="80" height="40" as="geometry" />
        </mxCell>
        <mxCell id="Z5-3QnoSSxAkNdHi2Z3w-69" style="edgeStyle=orthogonalEdgeStyle;rounded=0;orthogonalLoop=1;jettySize=auto;html=1;exitX=0.5;exitY=1;exitDx=0;exitDy=0;" edge="1" parent="1" source="Z5-3QnoSSxAkNdHi2Z3w-60" target="Z5-3QnoSSxAkNdHi2Z3w-63">
          <mxGeometry relative="1" as="geometry" />
        </mxCell>
        <mxCell id="Z5-3QnoSSxAkNdHi2Z3w-60" value="Block 4" style="rounded=0;whiteSpace=wrap;html=1;" vertex="1" parent="1">
          <mxGeometry x="1800" y="300" width="80" height="40" as="geometry" />
        </mxCell>
        <mxCell id="Z5-3QnoSSxAkNdHi2Z3w-71" style="edgeStyle=orthogonalEdgeStyle;rounded=0;orthogonalLoop=1;jettySize=auto;html=1;exitX=0.5;exitY=1;exitDx=0;exitDy=0;" edge="1" parent="1" source="Z5-3QnoSSxAkNdHi2Z3w-61">
          <mxGeometry relative="1" as="geometry">
            <mxPoint x="1840" y="390" as="targetPoint" />
            <Array as="points">
              <mxPoint x="1730" y="360" />
              <mxPoint x="1840" y="360" />
            </Array>
          </mxGeometry>
        </mxCell>
        <mxCell id="Z5-3QnoSSxAkNdHi2Z3w-61" value="Block 6" style="rounded=0;whiteSpace=wrap;html=1;" vertex="1" parent="1">
          <mxGeometry x="1690" y="300" width="80" height="40" as="geometry" />
        </mxCell>
        <mxCell id="Z5-3QnoSSxAkNdHi2Z3w-70" style="edgeStyle=orthogonalEdgeStyle;rounded=0;orthogonalLoop=1;jettySize=auto;html=1;exitX=0.5;exitY=1;exitDx=0;exitDy=0;entryX=0.5;entryY=0;entryDx=0;entryDy=0;" edge="1" parent="1" source="Z5-3QnoSSxAkNdHi2Z3w-62" target="Z5-3QnoSSxAkNdHi2Z3w-63">
          <mxGeometry relative="1" as="geometry" />
        </mxCell>
        <mxCell id="Z5-3QnoSSxAkNdHi2Z3w-62" value="Block 7" style="rounded=0;whiteSpace=wrap;html=1;" vertex="1" parent="1">
          <mxGeometry x="1920" y="300" width="80" height="40" as="geometry" />
        </mxCell>
        <mxCell id="Z5-3QnoSSxAkNdHi2Z3w-63" value="Block 5" style="rounded=0;whiteSpace=wrap;html=1;" vertex="1" parent="1">
          <mxGeometry x="1800" y="380" width="80" height="40" as="geometry" />
        </mxCell>
        <mxCell id="Z5-3QnoSSxAkNdHi2Z3w-72" value="" style="endArrow=none;dashed=1;html=1;dashPattern=1 3;strokeWidth=2;" edge="1" parent="1">
          <mxGeometry width="50" height="50" relative="1" as="geometry">
            <mxPoint x="1598" y="130" as="sourcePoint" />
            <mxPoint x="2068" y="130" as="targetPoint" />
          </mxGeometry>
        </mxCell>
        <mxCell id="Z5-3QnoSSxAkNdHi2Z3w-73" value="" style="endArrow=none;dashed=1;html=1;dashPattern=1 3;strokeWidth=2;" edge="1" parent="1">
          <mxGeometry width="50" height="50" relative="1" as="geometry">
            <mxPoint x="1598" y="201" as="sourcePoint" />
            <mxPoint x="2068" y="201" as="targetPoint" />
          </mxGeometry>
        </mxCell>
        <mxCell id="Z5-3QnoSSxAkNdHi2Z3w-74" value="" style="endArrow=none;dashed=1;html=1;dashPattern=1 3;strokeWidth=2;" edge="1" parent="1">
          <mxGeometry width="50" height="50" relative="1" as="geometry">
            <mxPoint x="1598" y="270" as="sourcePoint" />
            <mxPoint x="2068" y="270" as="targetPoint" />
          </mxGeometry>
        </mxCell>
        <mxCell id="Z5-3QnoSSxAkNdHi2Z3w-75" value="" style="endArrow=none;dashed=1;html=1;dashPattern=1 3;strokeWidth=2;" edge="1" parent="1">
          <mxGeometry width="50" height="50" relative="1" as="geometry">
            <mxPoint x="1598" y="368" as="sourcePoint" />
            <mxPoint x="2068" y="368" as="targetPoint" />
          </mxGeometry>
        </mxCell>
        <mxCell id="Z5-3QnoSSxAkNdHi2Z3w-76" value="" style="endArrow=none;dashed=1;html=1;dashPattern=1 3;strokeWidth=2;" edge="1" parent="1">
          <mxGeometry width="50" height="50" relative="1" as="geometry">
            <mxPoint x="1598" y="440" as="sourcePoint" />
            <mxPoint x="2068" y="440" as="targetPoint" />
          </mxGeometry>
        </mxCell>
        <mxCell id="Z5-3QnoSSxAkNdHi2Z3w-77" value="&lt;b&gt;Deepth&lt;/b&gt;" style="text;html=1;strokeColor=none;fillColor=none;align=center;verticalAlign=middle;whiteSpace=wrap;rounded=0;" vertex="1" parent="1">
          <mxGeometry x="1600" y="70" width="40" height="20" as="geometry" />
        </mxCell>
        <mxCell id="Z5-3QnoSSxAkNdHi2Z3w-78" value="&lt;b&gt;0&lt;/b&gt;" style="text;html=1;strokeColor=none;fillColor=none;align=center;verticalAlign=middle;whiteSpace=wrap;rounded=0;" vertex="1" parent="1">
          <mxGeometry x="1600" y="100" width="40" height="20" as="geometry" />
        </mxCell>
        <mxCell id="Z5-3QnoSSxAkNdHi2Z3w-79" value="1" style="text;html=1;strokeColor=none;fillColor=none;align=center;verticalAlign=middle;whiteSpace=wrap;rounded=0;fontStyle=1" vertex="1" parent="1">
          <mxGeometry x="1600" y="180" width="40" height="20" as="geometry" />
        </mxCell>
        <mxCell id="Z5-3QnoSSxAkNdHi2Z3w-80" value="2" style="text;html=1;strokeColor=none;fillColor=none;align=center;verticalAlign=middle;whiteSpace=wrap;rounded=0;fontStyle=1" vertex="1" parent="1">
          <mxGeometry x="1600" y="250" width="40" height="20" as="geometry" />
        </mxCell>
        <mxCell id="Z5-3QnoSSxAkNdHi2Z3w-81" value="3" style="text;html=1;strokeColor=none;fillColor=none;align=center;verticalAlign=middle;whiteSpace=wrap;rounded=0;fontStyle=1" vertex="1" parent="1">
          <mxGeometry x="1600" y="350" width="40" height="20" as="geometry" />
        </mxCell>
        <mxCell id="Z5-3QnoSSxAkNdHi2Z3w-82" value="4" style="text;html=1;strokeColor=none;fillColor=none;align=center;verticalAlign=middle;whiteSpace=wrap;rounded=0;fontStyle=1" vertex="1" parent="1">
          <mxGeometry x="1600" y="420" width="40" height="20" as="geometry" />
        </mxCell>
      </root>
    </mxGraphModel>
  </diagram>
</mxfile>
